<svg width="347" height="100" viewBox="0 0 347 100" fill="none" xmlns="http://www.w3.org/2000/svg">
<path d="M29.696 19.6639V38.3519H44.8V56.3999H29.696V97.9999H5.24805V1.74393H46.592V19.6639H29.696Z" fill="#C74869"/>
<path d="M88.323 19.6639V97.9999H63.875V19.6639H49.411V1.74393H102.787V19.6639H88.323Z" fill="#121212"/>
<path d="M165.681 72.1439C165.681 77.6906 164.828 82.2559 163.121 85.8399C161.414 89.3386 159.196 92.1119 156.465 94.1599C153.82 96.1226 150.833 97.4879 147.505 98.2559C144.177 99.0239 140.849 99.4079 137.521 99.4079C132.145 99.4079 127.622 98.7253 123.953 97.3599C120.369 95.9093 117.468 93.8613 115.249 91.2159C113.116 88.5706 111.58 85.4133 110.641 81.7439C109.702 78.0746 109.233 73.9359 109.233 69.3279V28.2399C109.233 26.6186 109.318 24.7839 109.489 22.7359C109.66 20.6879 110.086 18.6399 110.769 16.5919C111.452 14.5439 112.39 12.5386 113.585 10.5759C114.78 8.61327 116.444 6.9066 118.577 5.45593C120.71 3.91993 123.313 2.6826 126.385 1.74393C129.457 0.80527 133.169 0.335938 137.521 0.335938C141.702 0.335938 145.542 0.847936 149.041 1.87193C152.54 2.89594 155.484 4.55994 157.873 6.86394C160.348 9.0826 162.268 11.9839 163.633 15.5679C164.998 19.0666 165.681 23.2906 165.681 28.2399V72.1439ZM141.233 23.7599C141.233 22.9919 141.19 22.1813 141.105 21.3279C141.105 20.4746 140.977 19.7066 140.721 19.0239C140.55 18.3413 140.209 17.7866 139.697 17.3599C139.185 16.8479 138.46 16.5919 137.521 16.5919C136.582 16.5919 135.857 16.8053 135.345 17.2319C134.833 17.6586 134.449 18.2559 134.193 19.0239C133.937 19.7066 133.766 20.4746 133.681 21.3279C133.681 22.0959 133.681 22.8639 133.681 23.6319V75.3439C133.681 76.1119 133.681 76.9653 133.681 77.9039C133.766 78.7573 133.937 79.5679 134.193 80.3359C134.449 81.0186 134.833 81.6159 135.345 82.1279C135.942 82.5546 136.71 82.7679 137.649 82.7679C138.502 82.7679 139.142 82.5546 139.569 82.1279C140.081 81.6159 140.465 81.0186 140.721 80.3359C140.977 79.5679 141.105 78.7573 141.105 77.9039C141.19 76.9653 141.233 76.1119 141.233 75.3439V23.7599Z" fill="#121212"/>
<path d="M221.581 47.1839C225.08 48.5493 227.426 50.3413 228.621 52.5599C229.816 54.7786 230.413 57.8933 230.413 61.9039V88.7839C230.413 90.5759 230.456 92.1973 230.541 93.6479C230.626 95.0986 231.138 96.5493 232.077 97.9999H209.549C208.866 96.8053 208.397 95.3973 208.141 93.7759C207.97 92.0693 207.885 90.1493 207.885 88.0159V65.9999C207.885 61.9893 207.288 59.1306 206.093 57.4239C204.984 55.6319 202.85 54.6506 199.693 54.4799V97.9999H175.373V1.61594H208.525C215.693 1.61594 221.112 3.62127 224.781 7.63194C228.536 11.5573 230.413 17.9146 230.413 26.7039C230.413 32.4213 229.773 36.8159 228.493 39.8879C227.298 42.9599 224.994 45.2213 221.581 46.6719V47.1839ZM199.693 18.1279V39.6319C201.485 39.5466 202.893 39.3759 203.917 39.1199C205.026 38.8639 205.837 38.3519 206.349 37.5839C206.946 36.7306 207.33 35.5786 207.501 34.1279C207.757 32.6773 207.885 30.7573 207.885 28.3679C207.885 26.3199 207.8 24.6559 207.629 23.3759C207.458 22.0106 207.074 20.9439 206.477 20.1759C205.965 19.4079 205.197 18.8959 204.173 18.6399C203.149 18.2986 201.741 18.1279 199.949 18.1279H199.693Z" fill="#121212"/>
<path d="M239.998 97.9999V1.74393H280.702V19.6639H264.318V38.3519H279.678V56.3999H264.318V79.9519H282.366V97.9999H239.998Z" fill="#121212"/>
<path d="M314.83 65.4879L310.734 97.9999H285.518L297.934 47.6959L286.926 1.74393H312.526L315.47 29.7759H316.238L319.31 1.74393H344.142L332.75 47.6959L345.294 97.9999H319.822L315.598 65.4879H314.83Z" fill="#121212"/>
<path d="M246.624 77.1738H250.128V74.3418H253.512V77.1738H261.312V81.7578H243.264V74.0058H246.624V77.1738Z" fill="#C74869"/>
<path d="M246.624 66.1813H261.312V70.7653H246.624V73.4773H243.264V63.4692H246.624V66.1813Z" fill="#8B7F6D"/>
<path d="M256.464 51.6766C257.504 51.6766 258.36 51.8366 259.032 52.1566C259.688 52.4766 260.208 52.8926 260.592 53.4046C260.96 53.9006 261.216 54.4606 261.36 55.0846C261.504 55.7086 261.576 56.3326 261.576 56.9566C261.576 57.9646 261.448 58.8126 261.192 59.5006C260.92 60.1726 260.536 60.7166 260.04 61.1326C259.544 61.5326 258.952 61.8206 258.264 61.9966C257.576 62.1726 256.8 62.2606 255.936 62.2606H248.232C247.928 62.2606 247.584 62.2446 247.2 62.2126C246.816 62.1806 246.432 62.1006 246.048 61.9726C245.664 61.8446 245.288 61.6686 244.92 61.4446C244.552 61.2206 244.232 60.9086 243.96 60.5086C243.672 60.1086 243.44 59.6206 243.264 59.0446C243.088 58.4686 243 57.7726 243 56.9566C243 56.1726 243.096 55.4526 243.288 54.7966C243.48 54.1406 243.792 53.5886 244.224 53.1406C244.64 52.6766 245.184 52.3166 245.856 52.0606C246.512 51.8046 247.304 51.6766 248.232 51.6766H256.464ZM247.392 56.2606C247.248 56.2606 247.096 56.2686 246.936 56.2846C246.776 56.2846 246.632 56.3086 246.504 56.3566C246.376 56.3886 246.272 56.4526 246.192 56.5486C246.096 56.6446 246.048 56.7806 246.048 56.9566C246.048 57.1326 246.088 57.2686 246.168 57.3646C246.248 57.4606 246.36 57.5326 246.504 57.5806C246.632 57.6286 246.776 57.6606 246.936 57.6766C247.08 57.6766 247.224 57.6766 247.368 57.6766H257.064C257.208 57.6766 257.368 57.6766 257.544 57.6766C257.704 57.6606 257.856 57.6286 258 57.5806C258.128 57.5326 258.24 57.4606 258.336 57.3646C258.416 57.2526 258.456 57.1086 258.456 56.9326C258.456 56.7726 258.416 56.6526 258.336 56.5726C258.24 56.4766 258.128 56.4046 258 56.3566C257.856 56.3086 257.704 56.2846 257.544 56.2846C257.368 56.2686 257.208 56.2606 257.064 56.2606H247.392Z" fill="#8B7F6D"/>
<path d="M251.784 41.1954C252.04 40.5394 252.376 40.0994 252.792 39.8754C253.208 39.6514 253.792 39.5394 254.544 39.5394H259.584C259.92 39.5394 260.224 39.5314 260.496 39.5154C260.768 39.4994 261.04 39.4034 261.312 39.2274V43.4514C261.088 43.5794 260.824 43.6674 260.52 43.7154C260.2 43.7474 259.84 43.7634 259.44 43.7634H255.312C254.56 43.7634 254.024 43.8754 253.704 44.0994C253.368 44.3074 253.184 44.7074 253.152 45.2994H261.312V49.8594H243.24V43.6434C243.24 42.2994 243.616 41.2834 244.368 40.5954C245.104 39.8914 246.296 39.5394 247.944 39.5394C249.016 39.5394 249.84 39.6594 250.416 39.8994C250.992 40.1234 251.416 40.5554 251.688 41.1954H251.784ZM246.336 45.2994H250.368C250.352 44.9634 250.32 44.6994 250.272 44.5074C250.224 44.2994 250.128 44.1474 249.984 44.0514C249.824 43.9394 249.608 43.8674 249.336 43.8354C249.064 43.7874 248.704 43.7634 248.256 43.7634C247.872 43.7634 247.56 43.7794 247.32 43.8114C247.064 43.8434 246.864 43.9154 246.72 44.0274C246.576 44.1234 246.48 44.2674 246.432 44.4594C246.368 44.6514 246.336 44.9154 246.336 45.2514V45.2994Z" fill="#8B7F6D"/>
<path d="M261.312 37.7422H243.264V30.1102H246.624V33.1822H250.128V30.3022H253.512V33.1822H257.928V29.7982H261.312V37.7422Z" fill="#8B7F6D"/>
<path d="M255.216 23.7112L261.312 24.4792V29.2072L251.88 26.8792L243.264 28.9432V24.1432L248.52 23.5912V23.4472L243.264 22.8712V18.2152L251.88 20.3512L261.312 17.9992V22.7752L255.216 23.5672V23.7112Z" fill="#8B7F6D"/>
</svg>
