<svg width="194" height="53" viewBox="0 0 194 53" fill="none" xmlns="http://www.w3.org/2000/svg">
<circle cx="189.543" cy="5.45676" r="4.19459" stroke="#121212" stroke-width="0.524324"/>
<path d="M187.913 6.62109H187.481V4.3666H186.714V4.00101H188.678V4.3666H187.913V6.62109ZM190.21 6.62109L189.456 4.43291H189.44C189.443 4.4819 189.448 4.5488 189.452 4.63363C189.457 4.71846 189.461 4.80926 189.465 4.90603C189.468 5.00281 189.47 5.0954 189.47 5.18381V6.62109H189.08V4.00101H189.683L190.409 6.09242H190.42L191.171 4.00101H191.773V6.62109H191.363V5.1623C191.363 5.08226 191.364 4.99564 191.366 4.90245C191.37 4.80926 191.373 4.72084 191.377 4.63721C191.382 4.55358 191.385 4.48667 191.388 4.43649H191.373L190.59 6.62109H190.21Z" fill="#121212"/>
<path d="M15.5706 10.263V20.0616H23.49V29.5246H15.5706V51.3365H2.75195V0.867153H24.4296V10.263H15.5706Z" fill="#C74869"/>
<path d="M46.3102 10.263V51.3365H33.4915V10.263H25.9077V0.867153H53.894V10.263H46.3102Z" fill="#121212"/>
<path d="M86.8709 37.7796C86.8709 40.6878 86.4235 43.0816 85.5286 44.9607C84.6338 46.7952 83.4705 48.2493 82.0387 49.3231C80.6517 50.3522 79.0857 51.0681 77.3408 51.4707C75.5958 51.8734 73.8509 52.0748 72.1059 52.0748C69.2871 52.0748 66.9158 51.7168 64.9919 51.0009C63.1127 50.2403 61.5915 49.1665 60.4282 47.7795C59.3096 46.3925 58.5042 44.737 58.0121 42.8131C57.5199 40.8892 57.2738 38.7192 57.2738 36.3031V14.7597C57.2738 13.9095 57.3186 12.9476 57.408 11.8738C57.4975 10.8 57.7212 9.72614 58.0792 8.65232C58.4371 7.5785 58.9293 6.52706 59.5557 5.49799C60.1821 4.46891 61.0546 3.57406 62.1731 2.81344C63.2917 2.00808 64.6563 1.35932 66.267 0.867153C67.8778 0.374989 69.8241 0.128906 72.1059 0.128906C74.2983 0.128906 76.3117 0.39736 78.1461 0.934266C79.9806 1.47118 81.5242 2.34365 82.777 3.5517C84.0745 4.71499 85.0812 6.23623 85.7971 8.11541C86.5129 9.94985 86.8709 12.1646 86.8709 14.7597V37.7796ZM74.0522 12.4107C74.0522 12.008 74.0298 11.5829 73.9851 11.1355C73.9851 10.6881 73.918 10.2854 73.7838 9.92748C73.6943 9.56954 73.5153 9.27871 73.2468 9.055C72.9784 8.78655 72.5981 8.65232 72.1059 8.65232C71.6137 8.65232 71.2334 8.76418 70.965 8.98789C70.6965 9.2116 70.4952 9.5248 70.361 9.92748C70.2267 10.2854 70.1372 10.6881 70.0925 11.1355C70.0925 11.5382 70.0925 11.9409 70.0925 12.3436V39.4574C70.0925 39.8601 70.0925 40.3075 70.0925 40.7997C70.1372 41.2471 70.2267 41.6722 70.361 42.0749C70.4952 42.4328 70.6965 42.746 70.965 43.0144C71.2782 43.2382 71.6809 43.35 72.173 43.35C72.6204 43.35 72.956 43.2382 73.1797 43.0144C73.4482 42.746 73.6495 42.4328 73.7838 42.0749C73.918 41.6722 73.9851 41.2471 73.9851 40.7997C74.0298 40.3075 74.0522 39.8601 74.0522 39.4574V12.4107Z" fill="#121212"/>
<path d="M116.181 24.6925C118.015 25.4083 119.245 26.3479 119.872 27.5112C120.498 28.6745 120.811 30.3076 120.811 32.4105V46.5043C120.811 47.4439 120.834 48.294 120.879 49.0547C120.923 49.8153 121.192 50.5759 121.684 51.3365H109.872C109.514 50.7101 109.268 49.9719 109.134 49.1218C109.044 48.2269 108.999 47.2202 108.999 46.1017V34.5581C108.999 32.4552 108.686 30.9564 108.06 30.0615C107.478 29.1219 106.36 28.6074 104.704 28.5179V51.3365H91.9526V0.800041H109.335C113.093 0.800041 115.935 1.85149 117.858 3.95438C119.827 6.01252 120.811 9.34583 120.811 13.9543C120.811 16.952 120.476 19.2563 119.805 20.867C119.178 22.4777 117.97 23.6634 116.181 24.424V24.6925ZM104.704 9.45768V20.7328C105.644 20.688 106.382 20.5985 106.919 20.4643C107.501 20.3301 107.926 20.0616 108.194 19.6589C108.507 19.2115 108.709 18.6075 108.798 17.8469C108.932 17.0863 108.999 16.0795 108.999 14.8268C108.999 13.7529 108.955 12.8805 108.865 12.2093C108.776 11.4935 108.574 10.9342 108.261 10.5315C107.993 10.1288 107.59 9.86036 107.053 9.72614C106.516 9.54717 105.778 9.45768 104.838 9.45768H104.704Z" fill="#121212"/>
<path d="M125.837 51.3365V0.867153H147.179V10.263H138.589V20.0616H146.642V29.5246H138.589V41.8735H148.052V51.3365H125.837Z" fill="#121212"/>
<path d="M165.073 34.2897L162.926 51.3365H149.704L156.214 24.9609L150.443 0.867153H163.865L165.409 15.565H165.812L167.422 0.867153H180.442L174.469 24.9609L181.046 51.3365H167.691L165.476 34.2897H165.073Z" fill="#121212"/>
<path d="M129.31 40.4168H131.148V38.9319H132.922V40.4168H137.012V42.8203H127.549V38.7558H129.31V40.4168Z" fill="#C74869"/>
<path d="M129.31 34.6531H137.012V37.0566H129.31V38.4786H127.549V33.2312H129.31V34.6531Z" fill="#8B7F6D"/>
<path d="M134.47 27.048C135.015 27.048 135.464 27.1319 135.816 27.2997C136.16 27.4675 136.433 27.6856 136.634 27.954C136.827 28.2141 136.961 28.5077 137.037 28.8349C137.112 29.1621 137.15 29.4893 137.15 29.8164C137.15 30.345 137.083 30.7896 136.949 31.1503C136.806 31.5027 136.605 31.7879 136.345 32.006C136.085 32.2158 135.774 32.3668 135.413 32.459C135.053 32.5513 134.646 32.5975 134.193 32.5975H130.153C129.994 32.5975 129.814 32.5891 129.612 32.5723C129.411 32.5555 129.21 32.5136 129.008 32.4465C128.807 32.3793 128.61 32.2871 128.417 32.1696C128.224 32.0522 128.056 31.8886 127.914 31.6788C127.763 31.4691 127.641 31.2132 127.549 30.9112C127.456 30.6092 127.41 30.2443 127.41 29.8164C127.41 29.4054 127.46 29.0279 127.561 28.6839C127.662 28.3399 127.825 28.0505 128.052 27.8156C128.27 27.5723 128.555 27.3836 128.908 27.2494C129.252 27.1151 129.667 27.048 130.153 27.048H134.47ZM129.713 29.4515C129.637 29.4515 129.558 29.4557 129.474 29.4641C129.39 29.4641 129.315 29.4767 129.247 29.5019C129.18 29.5186 129.126 29.5522 129.084 29.6025C129.033 29.6529 129.008 29.7242 129.008 29.8164C129.008 29.9087 129.029 29.98 129.071 30.0304C129.113 30.0807 129.172 30.1185 129.247 30.1436C129.315 30.1688 129.39 30.1856 129.474 30.194C129.549 30.194 129.625 30.194 129.7 30.194H134.784C134.86 30.194 134.944 30.194 135.036 30.194C135.12 30.1856 135.2 30.1688 135.275 30.1436C135.342 30.1185 135.401 30.0807 135.451 30.0304C135.493 29.9716 135.514 29.8961 135.514 29.8039C135.514 29.72 135.493 29.6571 135.451 29.6151C135.401 29.5648 135.342 29.527 135.275 29.5019C135.2 29.4767 135.12 29.4641 135.036 29.4641C134.944 29.4557 134.86 29.4515 134.784 29.4515H129.713Z" fill="#8B7F6D"/>
<path d="M132.016 21.5524C132.15 21.2085 132.326 20.9778 132.544 20.8603C132.762 20.7429 133.069 20.6842 133.463 20.6842H136.106C136.282 20.6842 136.441 20.68 136.584 20.6716C136.726 20.6632 136.869 20.6129 137.012 20.5206V22.7353C136.894 22.8024 136.756 22.8486 136.596 22.8737C136.429 22.8905 136.24 22.8989 136.03 22.8989H133.866C133.471 22.8989 133.19 22.9576 133.023 23.0751C132.846 23.1841 132.75 23.3939 132.733 23.7043H137.012V26.0952H127.536V22.836C127.536 22.1313 127.733 21.5986 128.127 21.2378C128.513 20.8687 129.138 20.6842 130.002 20.6842C130.564 20.6842 130.997 20.7471 131.299 20.8729C131.601 20.9904 131.823 21.2169 131.965 21.5524H132.016ZM129.159 23.7043H131.273C131.265 23.5281 131.248 23.3897 131.223 23.289C131.198 23.1799 131.148 23.1002 131.072 23.0499C130.988 22.9912 130.875 22.9534 130.732 22.9367C130.59 22.9115 130.401 22.8989 130.166 22.8989C129.965 22.8989 129.801 22.9073 129.675 22.9241C129.541 22.9409 129.436 22.9786 129.361 23.0373C129.285 23.0877 129.235 23.1632 129.21 23.2638C129.176 23.3645 129.159 23.5029 129.159 23.6791V23.7043Z" fill="#8B7F6D"/>
<path d="M137.012 19.7418H127.549V15.7402H129.31V17.3509H131.148V15.8409H132.922V17.3509H135.237V15.5766H137.012V19.7418Z" fill="#8B7F6D"/>
<path d="M133.815 12.3851L137.012 12.7877V15.2667L132.066 14.0461L127.549 15.1283V12.6116L130.304 12.3221V12.2466L127.549 11.9446V9.50337L132.066 10.6233L137.012 9.39012V11.8943L133.815 12.3096V12.3851Z" fill="#8B7F6D"/>
</svg>
