<svg width="69" height="20" viewBox="0 0 69 20" fill="none" xmlns="http://www.w3.org/2000/svg">
<path d="M4.96083 3.90181V7.67442H8.02564V11.3178H4.96083V19.7158H0V0.284237H8.38927V3.90181H4.96083Z" fill="#C74869"/>
<path d="M16.8571 3.90181V19.7158H11.8962V3.90181H8.96128V0.284237H19.792V3.90181H16.8571Z" fill="#121212"/>
<path d="M32.5541 14.4961C32.5541 15.6158 32.3809 16.5375 32.0346 17.261C31.6883 17.9673 31.2381 18.5271 30.684 18.9406C30.1472 19.3368 29.5412 19.6124 28.8659 19.7674C28.1906 19.9225 27.5153 20 26.84 20C25.7491 20 24.8314 19.8622 24.0869 19.5866C23.3596 19.2937 22.7709 18.8803 22.3207 18.3463C21.8878 17.8122 21.5762 17.1749 21.3857 16.4341C21.1952 15.6934 21.1 14.8579 21.1 13.9276V5.63307C21.1 5.30577 21.1173 4.9354 21.1519 4.52196C21.1866 4.10853 21.2731 3.69509 21.4117 3.28165C21.5502 2.86822 21.7406 2.46339 21.9831 2.06718C22.2255 1.67097 22.5631 1.32644 22.996 1.03359C23.4289 0.723513 23.957 0.473729 24.5804 0.284237C25.2037 0.0947457 25.9569 0 26.84 0C27.6885 0 28.4676 0.103359 29.1776 0.310077C29.8875 0.516795 30.4849 0.852713 30.9697 1.31783C31.4718 1.76572 31.8614 2.35142 32.1385 3.07493C32.4155 3.78122 32.5541 4.63394 32.5541 5.63307V14.4961ZM27.5932 4.72868C27.5932 4.57364 27.5846 4.40999 27.5673 4.23773C27.5673 4.06546 27.5413 3.91042 27.4893 3.77261C27.4547 3.6348 27.3854 3.52283 27.2815 3.43669C27.1777 3.33333 27.0305 3.28165 26.84 3.28165C26.6495 3.28165 26.5024 3.32472 26.3985 3.41085C26.2946 3.49698 26.2167 3.61757 26.1647 3.77261C26.1128 3.91042 26.0781 4.06546 26.0608 4.23773C26.0608 4.39276 26.0608 4.5478 26.0608 4.70284V15.1421C26.0608 15.2972 26.0608 15.4694 26.0608 15.6589C26.0781 15.8312 26.1128 15.9948 26.1647 16.1499C26.2167 16.2877 26.2946 16.4083 26.3985 16.5116C26.5197 16.5978 26.6755 16.6408 26.866 16.6408C27.0391 16.6408 27.169 16.5978 27.2556 16.5116C27.3595 16.4083 27.4374 16.2877 27.4893 16.1499C27.5413 15.9948 27.5673 15.8312 27.5673 15.6589C27.5846 15.4694 27.5932 15.2972 27.5932 15.1421V4.72868Z" fill="#121212"/>
<path d="M43.8969 9.45737C44.6069 9.73299 45.083 10.0947 45.3254 10.5426C45.5679 10.9905 45.6891 11.6193 45.6891 12.4289V17.8553C45.6891 18.2171 45.6977 18.5444 45.715 18.8372C45.7324 19.1301 45.8362 19.4229 46.0267 19.7158H41.4555C41.317 19.4746 41.2217 19.1904 41.1698 18.8631C41.1351 18.5185 41.1178 18.1309 41.1178 17.7003V13.2558C41.1178 12.4462 40.9966 11.8691 40.7542 11.5245C40.5291 11.1628 40.0962 10.9647 39.4556 10.9302V19.7158H34.5207V0.258398H41.2477C42.7022 0.258398 43.8017 0.663221 44.5463 1.47287C45.3081 2.26529 45.6891 3.54866 45.6891 5.323C45.6891 6.47717 45.5592 7.36434 45.2995 7.9845C45.0571 8.60465 44.5895 9.06115 43.8969 9.354V9.45737ZM39.4556 3.59173V7.93282C39.8192 7.91559 40.1049 7.88114 40.3127 7.82946C40.5378 7.77778 40.7023 7.67442 40.8062 7.51938C40.9274 7.34711 41.0053 7.11456 41.0399 6.82171C41.0919 6.52885 41.1178 6.14126 41.1178 5.65891C41.1178 5.24548 41.1005 4.90956 41.0659 4.65116C41.0312 4.37554 40.9533 4.16021 40.8321 4.00517C40.7282 3.85013 40.5724 3.74677 40.3646 3.69509C40.1568 3.62618 39.8711 3.59173 39.5075 3.59173H39.4556Z" fill="#121212"/>
<path d="M47.634 19.7158V0.284237H55.8934V3.90181H52.5689V7.67442H55.6856V11.3178H52.5689V16.0724H56.231V19.7158H47.634Z" fill="#121212"/>
<path d="M62.8184 13.1525L61.9873 19.7158H56.8706L59.39 9.56072L57.1563 0.284237H62.3509L62.9483 5.94315H63.1041L63.7275 0.284237H68.7662L66.4547 9.56072L69 19.7158H63.8314L62.9743 13.1525H62.8184Z" fill="#121212"/>
</svg>
