<svg width="43" height="41" viewBox="0 0 43 41" fill="none" xmlns="http://www.w3.org/2000/svg">
<path d="M12.2115 17.2694C12.7148 16.7657 12.955 16.3044 12.4331 15.4248C12.2169 15.0607 11.9537 14.725 11.7448 14.357C10.877 12.8322 10.0277 11.2968 9.1608 9.77098C8.87813 9.27175 8.64209 8.72558 8.06684 8.46875H7.33892C6.71576 8.60417 6.09294 8.74727 5.46751 8.87343C5.45696 8.87567 5.44674 8.87982 5.43652 8.8827L10.93 18.434C11.3676 18.0561 11.8029 17.677 12.2114 17.2694L12.2115 17.2694Z" fill="#C74869"/>
<path d="M32.1474 32.7465C30.8684 32.0234 29.5714 31.3315 28.295 30.604C27.6352 30.2271 27.0142 29.7834 26.3594 29.3979C25.8771 29.1139 25.3623 29.0651 24.9094 29.4557C24.4913 29.8157 24.0847 30.1939 23.7152 30.6014C23.6743 30.6468 23.6363 30.6931 23.5957 30.7378L33.066 36.1757C33.1801 35.6698 33.2804 35.159 33.3874 34.6515C33.3947 34.6186 33.4126 34.5873 33.425 34.5563V33.8287C33.3481 33.7054 33.2973 33.5486 33.1887 33.4662C32.8543 33.2094 32.5135 32.9538 32.1475 32.7465L32.1474 32.7465Z" fill="#C74869"/>
<path d="M21.745 32.8711C21.325 33.3454 20.8012 33.4907 20.2288 33.1803C19.3562 32.7069 18.4772 32.2355 17.6439 31.6973C16.7592 31.1268 15.9134 30.4954 15.0736 29.8597C14.063 29.0941 13.1773 28.1889 12.3555 27.2301C11.4388 26.1601 10.6151 25.0153 9.91105 23.7904C9.49358 23.0641 9.07039 22.3394 8.68674 21.5951C8.47657 21.1882 8.47114 20.7484 8.82536 20.3923C9.26454 19.9518 9.71172 19.519 10.1707 19.0994L4.49135 9.22266C3.85031 9.5574 3.33475 10.0685 2.89656 10.7008C1.88788 12.1564 1.13856 13.7119 0.940845 15.4961C0.935415 15.5453 0.910182 15.5922 0.894531 15.6411V17.0436C0.988433 17.5249 1.04657 18.0174 1.18487 18.486C1.45221 19.3973 1.73585 20.3064 2.06641 21.1962C2.4877 22.3294 2.93004 23.4573 3.4213 24.5614C4.00421 25.8681 4.80464 27.0503 5.64946 28.203C6.79838 29.769 8.08687 31.2124 9.46792 32.5727C10.3357 33.4271 11.2537 34.2307 12.1679 35.0366C13.1932 35.9424 14.3024 36.7428 15.4683 37.4551C16.2179 37.9144 16.9931 38.3517 17.8025 38.6887C19.2532 39.293 20.7263 39.8522 22.2144 40.3569C23.0273 40.6335 23.8916 40.7606 24.7329 40.9558C24.7732 40.9653 24.8118 40.9845 24.8514 40.9998H26.2546C26.6433 40.9248 27.0352 40.8596 27.4214 40.7724C28.5377 40.5188 29.5726 40.0672 30.5196 39.431C31.0617 39.0659 31.581 38.6618 32.0816 38.2399C32.43 37.9461 32.6412 37.566 32.7935 37.1578L22.9348 31.4967C22.5391 31.9567 22.1462 32.4173 21.7447 32.8714L21.745 32.8711Z" fill="#C74869"/>
<path d="M35.2276 6.87901C30.793 2.44313 24.8963 0 18.6247 0C17.8725 0.000958233 17.2647 0.608464 17.2637 1.36037C17.2646 2.11192 17.874 2.72138 18.6247 2.72138C24.1693 2.71947 29.3837 4.87964 33.3052 8.8012C37.2265 12.7225 39.3857 17.9354 39.3857 23.4825C39.3838 23.8575 39.5374 24.1974 39.7837 24.4433C40.0296 24.6893 40.3685 24.8423 40.7448 24.8423C41.4967 24.8429 42.1051 24.2335 42.1051 23.4822C42.1064 17.2107 39.6633 11.3136 35.2274 6.87933L35.2276 6.87901Z" fill="#C74869"/>
<path d="M23.2199 18.8874C24.3254 19.9929 24.9335 21.4609 24.9335 23.0231C24.9335 23.4 25.0856 23.7392 25.3315 23.9861C25.5784 24.232 25.918 24.3834 26.2945 24.3834C27.0454 24.3844 27.6545 23.7749 27.6545 23.0243C27.6545 20.7339 26.7631 18.5817 25.1444 16.963C23.5246 15.3449 21.3722 14.4525 19.0837 14.4531C18.3328 14.4531 17.7236 15.0625 17.7236 15.8125C17.7233 16.5647 18.3327 17.1744 19.0847 17.1735C20.6459 17.1729 22.1145 17.7817 23.22 18.8875L23.2199 18.8874Z" fill="#C74869"/>
<path d="M19.0837 7.64844C18.3328 7.64844 17.7243 8.25786 17.7236 9.00782C17.7236 9.76002 18.3327 10.3697 19.0847 10.3679C22.4636 10.3688 25.6408 11.6838 28.0325 14.0759C30.4223 16.4657 31.7401 19.6446 31.7395 23.0237C31.7395 23.4006 31.8915 23.7398 32.1375 23.9866C32.3834 24.2326 32.7232 24.384 33.0999 24.384C33.8514 24.384 34.4599 23.7755 34.4599 23.0249C34.4599 18.919 32.8604 15.0558 29.9566 12.1515C27.0514 9.24653 23.1897 7.64855 19.084 7.64855L19.0837 7.64844Z" fill="#C74869"/>
</svg>
