<svg width="216" height="38" viewBox="0 0 216 38" fill="none" xmlns="http://www.w3.org/2000/svg">
<g clip-path="url(#clip0_993_166963)">
<mask id="mask0_993_166963" style="mask-type:luminance" maskUnits="userSpaceOnUse" x="0" y="0" width="216" height="38">
<path d="M215.02 0H0.0195312V38H215.02V0Z" fill="white"/>
</mask>
<g mask="url(#mask0_993_166963)">
<path d="M73.8633 5.91434C73.9096 5.2805 73.8145 4.64433 73.5849 4.05077C73.3552 3.45721 72.9965 2.92072 72.5342 2.47918L72.6061 2.37331C73.1972 2.55729 73.7374 2.87346 74.1849 3.29725C74.6323 3.72104 74.9749 4.24107 75.1861 4.81696C76.0821 1.7713 79.5213 0.673112 82.2444 1.03015V1.17159C80.2382 1.55799 78.7692 2.94211 78.7692 6.34249V24.4395C78.7692 24.4395 79.6292 25.2185 79.8802 25.3954C80.4173 25.8916 80.7401 26.1389 81.2773 26.1389C81.6661 26.1168 82.0399 25.9824 82.3523 25.7525C82.4079 25.7006 82.4678 25.6533 82.5313 25.611L82.7103 25.8591L77.874 29.7232L73.8617 25.9689L73.8633 5.91434Z" fill="#1E222D"/>
<path d="M56.6624 25.8523L56.4834 25.6042C56.3016 25.7817 56.0849 25.9204 55.8467 26.0117C55.6085 26.103 55.3539 26.145 55.0986 26.1351C54.8433 26.1251 54.5928 26.0635 54.3626 25.954C54.1324 25.8445 53.9274 25.6894 53.7603 25.4984C53.0082 24.8963 52.4703 24.4357 52.4703 24.4357V12.9981L49.4212 9.17347L43.653 13.0375V6.52117C43.653 3.1919 44.943 1.66945 47.1282 1.2444V1.06743C43.151 0.642378 40.6438 2.76761 40.0699 4.85421C39.8781 4.26764 39.5419 3.73734 39.0916 3.31084C38.6413 2.88435 38.0909 2.575 37.4899 2.41058L37.418 2.51645C37.8808 2.95032 38.2401 3.48053 38.47 4.06866C38.6999 4.65678 38.7945 5.28808 38.7471 5.91682V26.0324L42.7594 29.8192L46.3424 26.7024L43.6194 24.3646V13.5638L45.5544 12.25L47.5245 15.0121V26.0262L51.8245 29.813L56.6624 25.8523Z" fill="#1E222D"/>
<path d="M117.068 4.8875L113.664 8.18122L110.261 4.8875L113.664 1.59375L117.068 4.8875ZM101.805 31.0588C101.263 30.3024 100.534 29.6966 99.687 29.2996C98.84 28.9026 97.9038 28.7278 96.9687 28.7921C95.8526 28.7424 94.762 29.1319 93.9359 29.8755C93.1099 30.619 92.6156 31.6559 92.5615 32.759C92.5615 35.6632 95.1767 38.0002 100.336 38.0002C109.221 38.0002 111.657 31.5194 116.781 31.5194V13.0314L113.664 9.13563L109.794 12.3227L111.905 14.9789V29.8532C111.905 34.351 106.531 36.6539 103.235 36.6539C99.7238 36.6539 97.1086 34.8123 97.1086 32.5812C97.1102 32.275 97.1742 31.9722 97.2968 31.691C97.4193 31.4098 97.598 31.1558 97.822 30.9443C98.0459 30.7328 98.3107 30.568 98.6005 30.4598C98.8904 30.3516 99.1992 30.3022 99.5088 30.3146C99.9014 30.3008 100.293 30.3695 100.656 30.516C101.02 30.6625 101.349 30.8836 101.62 31.1647L101.805 31.0588Z" fill="#1E222D"/>
<path d="M24.3466 25.8892L26.3887 24.0831C26.3168 23.8706 26.0307 23.056 25.7078 22.029C25.0268 19.5853 23.9526 15.8665 23.9526 15.8665L22.3405 14.4144V16.0744C22.3405 19.6162 19.7605 21.4223 16.2501 22.8752C21.1584 23.1588 23.8447 25.4255 24.3466 25.8892ZM23.4874 0.425778C22.6306 2.03743 22.2344 3.84941 22.3413 5.66698V11.5102L30.0414 0.318351C31.1066 1.10888 32.3996 1.54214 33.7316 1.55485C35.0533 1.61944 36.3606 1.25909 37.4577 0.52778L37.5648 0.563322C37.1348 1.90879 35.0208 5.30918 31.6175 5.30918C30.2827 5.27639 28.9821 4.88471 27.8554 4.17624L24.1652 9.55888L28.3574 12.8526C28.3574 12.8526 30.1485 18.7669 30.8654 21.0691C31.6535 23.6194 32.4064 23.9378 33.9145 24.6109C34.5236 24.8946 35.1326 25.1419 35.9926 25.5314C36.5117 25.7993 37.0912 25.9323 37.6766 25.9178C38.0463 25.9099 38.4063 25.7995 38.7157 25.5994L38.8947 25.8119L34.7026 29.778C34.7026 29.778 32.0874 28.6095 30.2243 27.7949C28.6285 27.1936 27.3227 26.0166 26.5701 24.5012C24.743 26.0236 22.4859 28.0778 20.6588 29.7424C18.1853 28.1304 15.2732 27.3027 12.3113 27.3699C6.04192 27.3699 0.488667 30.3066 0.488667 33.7448C0.488667 35.9404 2.13674 37.1089 4.10692 37.1089L4.07096 37.4273C3.54391 37.4687 3.01394 37.3996 2.51579 37.2245C2.01764 37.0494 1.56254 36.7722 1.18032 36.4111C0.798108 36.05 0.497399 35.6131 0.297902 35.1291C0.098405 34.6451 0.00462369 34.1249 0.0227025 33.6026C0.0227025 27.7594 7.5821 23.3675 14.2104 22.9424C14.8913 22.0568 15.8584 20.9594 15.8584 17.9137V9.35098C15.8004 8.56637 16.0292 7.78724 16.5034 7.15542C16.2919 7.90388 16.2071 8.68179 16.2525 9.45763V18.2762C16.3493 19.9885 15.7569 21.669 14.6044 22.9509C14.8554 22.9509 15.0735 22.9154 15.3213 22.9154H15.7122C17.1813 21.2863 17.3243 19.4802 17.3243 17.78V9.17247C17.3603 6.30379 18.2914 5.20638 20.1186 3.47064C20.5486 3.04559 21.0145 2.62055 21.3366 2.30215L21.2647 2.23107C19.0436 3.86016 17.2164 5.16775 14.3503 5.16775C12.0572 5.16775 10.087 4.17624 7.93939 4.17624C6.92307 4.15911 5.93334 4.49772 5.14518 5.13221L5.07325 5.09664C6.00439 3.57343 8.51325 -0.00390625 12.2386 -0.00390625C15.0328 -0.00390625 16.3228 1.16458 19.0819 1.16458C20.5361 1.22404 21.984 0.945021 23.3092 0.350025L23.4874 0.425778Z" fill="#1E222D"/>
<path d="M87.4028 21.1783L91.7028 18.4866L87.4028 12.9262V21.1783ZM82.4945 14.4139L90.663 9.10156L96.1443 16.1844L87.4028 21.6026V23.8337C87.4028 23.8337 90.9499 25.5339 92.2039 26.1359C92.7941 26.4694 93.4593 26.6519 94.1389 26.6668C94.8682 26.6364 95.5848 26.468 96.2498 26.1707C96.6798 25.9581 97.0739 25.7843 97.0739 25.7843V26.248L89.9085 29.8253L82.4922 26.071L82.4945 14.4139Z" fill="#1E222D"/>
<path d="M191.23 21.1783L195.53 18.4866L191.23 12.9262V21.1783ZM186.286 14.4139L194.49 9.10156L199.972 16.1844L191.23 21.6026V23.8337C191.23 23.8337 194.777 25.5339 196.031 26.1359C196.621 26.4694 197.286 26.6519 197.966 26.6668C198.695 26.6364 199.412 26.468 200.077 26.1707C200.22 26.0996 200.758 25.8523 200.758 25.8523L200.901 26.2062L193.735 29.7828L186.319 26.0292V14.4139H186.286Z" fill="#1E222D"/>
<path d="M101.984 21.1783L106.284 18.4866L101.984 12.9262V21.1783ZM97.0398 14.4139L105.244 9.10156L110.726 16.1844L101.983 21.6026V23.8337C101.983 23.8337 105.53 25.5339 106.784 26.1359C107.388 26.4219 108.05 26.5674 108.719 26.5609C109.446 26.5236 110.155 26.3303 110.797 25.9945C111.188 25.7819 111.944 25.428 111.944 25.428V25.853L104.455 29.8199L97.0391 26.2781L97.0398 14.4139Z" fill="#1E222D"/>
<path d="M56.4473 14.4139L64.4367 9.13721L69.882 14.1303V24.3654C69.882 24.3654 70.7061 25.003 71.4582 25.6019C71.7857 25.9484 72.2312 26.1628 72.7091 26.204C73.1613 26.1433 73.5787 25.9307 73.8912 25.6019L74.1062 25.8856L69.305 29.8169L65.1176 26.1391L61.4274 29.8223L56.4473 25.9945V14.4139ZM61.3555 24.1885C61.3555 24.1885 62.8605 25.3214 63.1467 25.5695C63.4343 25.8507 63.8175 26.016 64.2217 26.0332C64.4876 26.0279 64.7424 25.9271 64.9386 25.7496V16.5036L61.3203 13.0329V24.1885H61.3555Z" fill="#1E222D"/>
<path d="M172.958 13.0328L169.877 9.13703L163.857 13.0328L160.776 9.13703L157.014 11.9701L158.984 14.4138V25.9975L163.57 29.7843L166.758 26.8476L163.892 24.3328V13.4578L166.185 11.9701L168.084 14.3427V25.9202L172.67 29.707L175.859 26.7703L172.993 24.2556V13.3875L175.393 11.8642L177.328 14.2724V25.8529L181.914 29.6397L186.464 25.9921L186.321 25.7795L186.178 25.8506C185.919 26.037 185.601 26.1251 185.282 26.0987C184.632 26.0821 184.015 25.8153 183.562 25.3552C183.204 25.0368 182.233 24.1868 182.233 24.1868V12.8913L179.156 8.99561L172.958 13.0328Z" fill="#1E222D"/>
<path d="M215.02 9.31417L209.574 16.574L214.017 19.7255V25.0378L207.568 29.854C206.334 28.9867 204.854 28.5269 203.34 28.5402C201.965 28.5701 200.636 29.03 199.542 29.854L199.327 29.677L205.059 22.0262L200.975 19.7951V13.8807L207.317 9.1001C208.446 9.92361 209.823 10.3477 211.226 10.3041C212.514 10.3217 213.768 9.89607 214.773 9.1001L215.02 9.31417ZM213.336 10.8721L213.229 10.8011C212.799 11.2972 210.936 13.2091 208.607 13.2091C207.617 13.2336 206.643 12.9621 205.812 12.4301V16.8568L207.962 18.0608L213.336 10.8721ZM209.108 22.5586L206.457 20.7526L200.906 28.119L201.013 28.2249C201.801 27.4459 203.557 25.7457 205.993 25.7457C207.083 25.7284 208.159 25.9972 209.11 26.5247L209.108 22.5586Z" fill="#1E222D"/>
<path d="M148.237 11.9348L152.035 9.10165L155.117 12.9974V24.2944C155.117 24.2944 155.762 24.8608 156.228 25.2859C156.661 25.7024 157.237 25.9427 157.84 25.959C158.25 25.9589 158.65 25.8354 158.987 25.605C159.022 25.6406 159.13 25.782 159.13 25.782L154.758 29.7133C154.113 29.1469 150.208 25.9598 150.208 25.9598V14.3784L148.237 11.9348ZM151.999 1.59375L148.595 4.8875L151.999 8.18122L155.403 4.8875L151.999 1.59375Z" fill="#1E222D"/>
<path d="M138.565 25.5346C139.508 25.5403 140.448 25.4212 141.359 25.1807V6.33949C140.642 6.30394 139.747 6.19806 139.317 6.16251V16.3976C139.317 21.356 134.086 23.0554 132.618 23.7996C134.393 24.9259 136.456 25.5278 138.565 25.5346ZM132.403 23.6219C133.37 22.7363 134.23 21.1782 134.23 18.6991V5.06435C133.943 4.99325 133.37 4.85183 133.119 4.78073V18.7377C133.227 20.3228 132.728 21.89 131.722 23.1288C131.901 23.2703 132.224 23.4828 132.403 23.625M149.851 0.534124C149.668 2.20843 148.84 3.74903 147.54 4.83681C146.239 5.92459 144.565 6.47617 142.864 6.37734C142.494 6.38445 142.123 6.3726 141.753 6.3418V25.0748C143.41 24.5461 144.909 23.624 146.121 22.3891C147.333 21.1542 148.22 19.6444 148.704 17.9919L148.847 18.0275C148.662 21.1776 147.277 24.1416 144.971 26.3231C142.664 28.5045 139.608 29.7415 136.416 29.7851C129.322 29.7851 124.055 24.4372 124.055 17.1419C124.018 14.8754 124.589 12.6396 125.709 10.6617C126.829 8.68373 128.459 7.03412 130.433 5.88044L130.54 5.98631C128.622 8.13194 127.598 10.9159 127.674 13.7778C127.626 15.4954 127.947 17.2035 128.613 18.7903C129.28 20.377 130.279 21.8068 131.543 22.9858C132.453 21.7054 132.894 20.1565 132.794 18.5947V4.74594C132.147 4.59982 131.487 4.51674 130.824 4.49788C129.578 4.43173 128.333 4.6533 127.189 5.14506C126.045 5.63681 125.032 6.38523 124.231 7.331L124.123 7.25989C124.732 3.04574 127.814 0.0356445 133.439 0.0356445C138.49 0.0356445 141.106 1.87725 145.047 1.87725C146.732 1.92763 148.389 1.44488 149.776 0.499337L149.851 0.534124Z" fill="#1E222D"/>
</g>
</g>
<defs>
<clipPath id="clip0_993_166963">
<rect width="216" height="38" fill="white"/>
</clipPath>
</defs>
</svg>
