<svg width="166" height="46" viewBox="0 0 166 46" fill="none" xmlns="http://www.w3.org/2000/svg">
<path d="M119.607 35.6618C114.391 35.6618 111.151 32.6449 111.151 27.7821C111.151 22.7353 114.141 19.5954 118.956 19.5954H119.36C119.964 19.5954 120.796 19.6151 121.932 19.7568V13.665H125.333V35.1127C125.333 35.1127 122.102 35.6618 119.607 35.6618ZM119.576 22.2699C116.281 22.2699 114.679 24.046 114.679 27.6975C114.679 30.9761 116.612 33.0139 119.718 33.0139C120.315 33.0139 120.999 32.9745 121.931 32.8948V22.4883C121 22.3388 120.249 22.2699 119.576 22.2699ZM73.0155 35.1698L63.8273 19.1576L63.8244 35.1698H60.6221V14.8989H65.1053L74.2935 30.7685L74.2895 14.8989H77.5342V35.1698H73.0155ZM102.283 35.4817C100.736 35.4817 99.1228 35.3085 97.2023 34.9395L96.9944 34.9002V32.0683L97.2979 32.1332C98.9917 32.4943 100.454 32.8023 101.917 32.8023C103.099 32.8023 105.851 32.6173 105.851 30.8806C105.851 29.4243 103.949 29.0583 102.422 28.7661L102.325 28.7464C102.039 28.6933 101.77 28.6391 101.544 28.5821C99.3031 28.0015 96.9127 27.1287 96.9127 24.1306C96.9127 21.2062 99.2302 19.5305 103.272 19.5305C105.212 19.5305 106.62 19.7371 107.752 19.9064L108.302 19.9871V22.7353L108.009 22.6822C106.728 22.447 105.227 22.2049 103.783 22.2049C102.178 22.2049 100.274 22.5051 100.274 23.9308C100.274 25.1145 101.832 25.453 103.638 25.8456C106.162 26.3908 109.291 27.0756 109.291 30.5156C109.291 33.6712 106.739 35.4817 102.283 35.4817ZM134.882 35.4817C131.362 35.4817 128.101 34.8618 128.101 30.3729C128.101 25.4875 133.143 25.4875 136.157 25.4875C136.457 25.4875 137.874 25.5534 138.308 25.5721C138.304 22.8317 138.27 22.1784 134.29 22.1784C132.713 22.1784 130.961 22.4893 129.414 22.7668L129.118 22.8199V20.114L129.317 20.0717C131.11 19.7076 132.84 19.5305 134.602 19.5305C138.459 19.5305 141.726 19.9182 141.726 24.6964V35.1166L141.492 35.1432C138.821 35.4423 136.699 35.4817 134.882 35.4817ZM136.073 27.9051C133.166 27.9051 131.365 28.3321 131.365 30.4575C131.365 32.9175 133.662 33.1211 135.818 33.1211C136.622 33.1211 138.07 33.0178 138.512 32.9863V27.9897C137.889 27.9631 136.269 27.9051 136.073 27.9051ZM87.156 35.4817C83.6305 35.4817 80.371 34.8618 80.371 30.3729C80.371 25.4875 85.4129 25.4875 88.426 25.4875C88.7266 25.4875 90.1464 25.5534 90.5819 25.5721C90.578 22.8317 90.5396 22.1784 86.5598 22.1784C84.9813 22.1784 83.2294 22.4893 81.6825 22.7668L81.3869 22.8199V20.114L81.5908 20.0717C83.3283 19.7129 85.0979 19.5316 86.8722 19.5305C90.7278 19.5305 93.9961 19.9182 93.9961 24.6964V35.1166L93.7606 35.1432C91.0904 35.4423 88.969 35.4817 87.156 35.4817ZM88.3413 27.9051C85.4356 27.9051 83.6383 28.3321 83.6383 30.4575C83.6383 32.9175 85.9322 33.1211 88.0881 33.1211C88.896 33.1211 90.3435 33.0178 90.7859 32.9863V27.9897C90.1582 27.9631 88.5374 27.9051 88.3413 27.9051Z" fill="white"/>
<mask id="mask0_993_167031" style="mask-type:luminance" maskUnits="userSpaceOnUse" x="143" y="18" width="16" height="25">
<path d="M143.947 18.6113H158.754V42.2267H143.947V18.6113Z" fill="white"/>
</mask>
<g mask="url(#mask0_993_167031)">
<path d="M155.27 42.0574V35.4077C153.943 35.5927 153.239 35.5927 152.669 35.5927C151.321 35.5927 149.824 35.3005 148.666 34.8124C146.071 33.735 144.524 30.9995 144.524 27.4897C144.524 25.7382 144.952 22.5354 147.811 20.8095C149.247 19.9534 150.941 19.5874 153.489 19.5874C154.4 19.5874 155.632 19.6563 156.821 19.7252L158.754 19.8255V40.5165L155.27 42.0574ZM153.235 22.2628C149.778 22.2618 148.026 24.0232 148.026 27.4897C148.026 31.953 150.639 32.8907 152.837 32.8907C153.372 32.8907 153.973 32.8907 155.304 32.7215V22.3593C154.261 22.2904 153.781 22.2628 153.235 22.2628Z" fill="white"/>
</g>
<mask id="mask1_993_167031" style="mask-type:luminance" maskUnits="userSpaceOnUse" x="31" y="2" width="28" height="34">
<path d="M31.6191 2.8833H58.223V35.3387H31.6191V2.8833Z" fill="white"/>
</mask>
<g mask="url(#mask1_993_167031)">
<path d="M45.4257 2.8833L34.1753 33.7506C34.0362 34.1306 33.7927 34.4639 33.4728 34.7122C33.1528 34.9605 32.7694 35.1139 32.3662 35.1547V35.1695H44.2591C45.1902 35.1695 45.9874 34.5781 46.284 33.7516L57.5384 2.8833H45.4257Z" fill="white"/>
</g>
<path d="M31.3956 34.7014C32.0854 34.7014 32.6894 34.359 33.0589 33.8404C33.0973 33.7863 33.2323 33.5974 33.3279 33.3406L37.4544 22.0131L35.0404 15.3978C34.8997 15.0628 34.672 14.7715 34.3807 14.554C34.0894 14.3365 33.7451 14.2007 33.3836 14.1608C33.0221 14.1208 32.6564 14.1781 32.3246 14.3268C31.9927 14.4755 31.7067 14.71 31.4961 15.0062C31.4567 15.0603 31.2961 15.3014 31.2271 15.5061L27.1006 26.8296L29.5255 33.4714C29.6828 33.8365 29.9437 34.1475 30.2761 34.3661C30.6085 34.5847 30.9977 34.7013 31.3956 34.7014Z" fill="white"/>
<mask id="mask2_993_167031" style="mask-type:luminance" maskUnits="userSpaceOnUse" x="6" y="12" width="27" height="34">
<path d="M6.00098 12.7075H32.6048V45.9628H6.00098V12.7075Z" fill="white"/>
</mask>
<g mask="url(#mask2_993_167031)">
<path d="M32.2778 13.6758H20.2539C19.3227 13.6758 18.5256 14.2642 18.2251 15.0947L6.97461 45.9619H19.0872L30.3387 15.0957C30.4847 14.6941 30.747 14.345 31.0924 14.0928C31.4377 13.8407 31.8504 13.6969 32.2778 13.6797V13.6758Z" fill="white"/>
</g>
</svg>
