<svg width="181" height="36" viewBox="0 0 181 36" fill="none" xmlns="http://www.w3.org/2000/svg">
<g clip-path="url(#clip0_993_167023)">
<mask id="mask0_993_167023" style="mask-type:luminance" maskUnits="userSpaceOnUse" x="0" y="0" width="181" height="36">
<path d="M180.02 0H0.0195312V36H180.02V0Z" fill="white"/>
</mask>
<g mask="url(#mask0_993_167023)">
<path fill-rule="evenodd" clip-rule="evenodd" d="M103.622 4.80175L106.835 7.39275L95.4249 21.3688L88.7179 13.2768H84.5879L93.2869 24.0038L83.4219 35.9998H87.4549L95.3759 26.4968L103.201 35.9998H107.331L97.4659 23.9088L113.432 4.31175L113.712 3.96875L103.622 4.80175Z" fill="white"/>
<path fill-rule="evenodd" clip-rule="evenodd" d="M8.18453 36H4.68453V14.644H0.0195312V11.44H4.68453V7.322C4.68453 2.848 7.06653 0 11.3915 0C13.3355 0 14.9885 0.305 16.3475 0.967V4.322C14.8415 3.66 13.4815 3.305 12.2665 3.305C9.54553 3.305 8.18453 4.882 8.18453 8.033V11.44H16.3475V14.644H8.18453V36Z" fill="white"/>
<path fill-rule="evenodd" clip-rule="evenodd" d="M35.8376 17.7459C34.1356 16.0529 31.9496 15.2059 29.3256 15.2059C26.7016 15.2059 24.5156 16.0529 22.8126 17.7459C21.1126 19.4399 20.2376 21.5569 20.2376 24.0979C20.2376 26.5909 21.1126 28.7079 22.8126 30.4019C24.5146 32.0949 26.7026 32.9419 29.3256 32.9419C31.9496 32.9419 34.1356 32.0949 35.8376 30.4019C37.5386 28.7079 38.4136 26.5909 38.4136 24.0979C38.4136 21.5579 37.5386 19.4399 35.8376 17.7459ZM29.3256 12.1479C33.0676 12.1479 36.0816 13.3239 38.4626 15.6759C40.8426 17.9809 42.0086 20.8039 42.0086 24.0979C42.0086 27.3909 40.8436 30.2129 38.4626 32.5189C36.0816 34.8239 33.0676 35.9999 29.3256 35.9999C25.5836 35.9999 22.5706 34.8239 20.1886 32.5199C17.8086 30.2129 16.6426 27.3899 16.6426 24.0979C16.6426 20.8039 17.8076 17.9809 20.1886 15.6759C22.5706 13.3239 25.5836 12.1479 29.3256 12.1479ZM45.8506 35.9999V13.2769H49.3506V17.6059C51.0986 14.6409 54.8406 12.7119 58.6806 12.7119V16.1469C57.6106 16.1469 56.6396 16.2879 55.7646 16.5699C52.6546 17.3229 50.3226 19.4399 49.3506 21.6509V35.9999H45.8506ZM78.7516 22.1219C78.6546 20.3799 77.9756 18.7809 76.7116 17.3699C75.4966 15.9119 73.6496 15.2059 71.1716 15.2059C68.7916 15.2059 66.8946 15.9119 65.4366 17.2759C64.0276 18.6399 63.2016 20.2399 63.0566 22.1219H78.7516ZM63.1036 32.6599C60.6256 30.4479 59.4116 27.5779 59.4116 24.0969C59.4116 20.6629 60.5286 17.8399 62.7156 15.5809C64.9506 13.2759 67.8186 12.1469 71.3176 12.1469C79.1896 12.1469 82.2996 18.8289 82.2996 23.9569V24.8969H63.0076C63.3966 29.7909 67.3806 32.9409 73.0176 32.9409C75.7396 32.9409 78.2676 32.2369 80.5516 30.8249V33.8349C78.6066 35.2939 75.8856 35.9999 72.3376 35.9999C68.6926 35.9999 65.5826 34.8709 63.1036 32.6599ZM110.624 30.4019V13.0369L114.135 8.72685L114.123 29.6019C114.123 31.8129 115.143 32.9419 117.184 32.9419C117.962 32.9419 118.74 32.7539 119.468 32.3309V35.3409C118.641 35.7639 117.525 35.9999 116.018 35.9999C112.957 35.9999 110.624 34.3999 110.624 30.4019ZM124.714 35.9999H128.212V13.2769H124.714V35.9999ZM124.714 3.77385C125.685 2.83385 127.24 2.83385 128.212 3.77385C129.185 4.71385 129.185 6.21985 128.212 7.16085C127.24 8.05485 125.685 8.05485 124.714 7.16085C123.79 6.21985 123.79 4.71385 124.714 3.77385ZM142.452 35.9999L131.665 13.1359H135.6L144.153 31.4369L152.658 13.1359H156.448L145.66 35.9999H142.452ZM176.473 22.1219C176.376 20.3799 175.695 18.7809 174.431 17.3699C173.217 15.9119 171.37 15.2059 168.891 15.2059C166.511 15.2059 164.615 15.9119 163.156 17.2759C161.748 18.6399 160.922 20.2399 160.776 22.1219H176.473ZM160.823 32.6599C158.345 30.4479 157.132 27.5779 157.132 24.0969C157.132 20.6629 158.249 17.8399 160.436 15.5809C162.67 13.2759 165.539 12.1469 169.036 12.1469C176.909 12.1469 180.02 18.8289 180.02 23.9569V24.8969H160.727C161.116 29.7909 165.1 32.9409 170.737 32.9409C173.46 32.9409 175.987 32.2369 178.271 30.8249V33.8349C176.327 35.2939 173.605 35.9999 170.058 35.9999C166.413 35.9999 163.302 34.8709 160.824 32.6599H160.823Z" fill="white"/>
</g>
</g>
<defs>
<clipPath id="clip0_993_167023">
<rect width="181" height="36" fill="white"/>
</clipPath>
</defs>
</svg>
