<svg width="163" height="23" viewBox="0 0 163 23" fill="none" xmlns="http://www.w3.org/2000/svg">
<g clip-path="url(#clip0_1002_167114)">
<path d="M17.1815 11.1957C17.454 11.2859 17.7031 11.3533 17.9406 11.4496C19.3924 12.0371 20.3741 13.1045 20.9357 14.532C21.75 16.6008 21.5498 18.5982 20.3115 20.4577C19.5764 21.562 18.5069 22.235 17.2538 22.6248C16.4698 22.8687 15.6627 22.9862 14.8401 22.9862C10.7833 22.9862 6.72645 22.9862 2.66962 22.9862H2.18992C2.18579 22.7766 2.17889 22.5959 2.17889 22.4155C2.17834 16.1115 2.17558 9.80731 2.18551 3.50338C2.18606 3.1098 2.09614 2.799 1.83822 2.49233C1.28598 1.83608 0.772087 1.14766 0.244122 0.471056C0.168265 0.373692 0.103166 0.267801 0 0.117354C0.147301 0.107178 0.241088 0.0953508 0.334599 0.0953508C5.07939 0.0945257 9.82446 0.0780233 14.5692 0.103602C16.1531 0.112128 17.6314 0.541742 18.868 1.58855C20.1532 2.67688 20.7901 4.07684 20.8414 5.75569C20.8764 6.89793 20.656 7.97334 20.0596 8.95606C19.4357 9.98444 18.5626 10.7111 17.4044 11.0791C17.3498 11.0964 17.2973 11.1201 17.2447 11.1426C17.2322 11.1479 17.2229 11.1605 17.1815 11.1954V11.1957ZM7.13636 18.6672C7.27842 18.6743 7.36282 18.6823 7.44723 18.6823C9.5111 18.6831 11.5752 18.6859 13.6391 18.679C13.8805 18.6782 14.1257 18.6422 14.3621 18.5907C15.4751 18.3476 16.1598 17.6036 16.3225 16.479C16.477 15.4093 15.9887 14.3865 15.0649 13.8628C14.5935 13.5954 14.0755 13.4821 13.5392 13.4805C11.5181 13.4742 9.4973 13.4775 7.4762 13.4794C7.36696 13.4794 7.25773 13.5008 7.13636 13.5138V18.6672ZM7.13746 9.14886C7.25718 9.15849 7.35372 9.17334 7.45054 9.17334C9.42669 9.17472 11.4028 9.17802 13.3787 9.16977C13.6336 9.16867 13.8945 9.13016 14.142 9.0669C15.2078 8.79544 15.8792 7.97774 15.9225 6.92434C15.9683 5.80134 15.3965 4.90141 14.3695 4.57274C13.9809 4.44842 13.5566 4.38406 13.1478 4.37966C11.2721 4.35986 9.39635 4.37058 7.52033 4.37196C7.3962 4.37196 7.27207 4.38736 7.13746 4.39644V9.14886Z" fill="#F1275B"/>
<path d="M99.2555 8.2023V22.9602H94.3177C94.3132 22.7971 94.305 22.632 94.305 22.467C94.3041 17.5922 94.3044 12.7171 94.3044 7.84228C94.3044 6.3268 94.3 4.8116 94.3086 3.29613C94.3099 3.03952 94.247 2.83819 94.0807 2.63438C93.4838 1.90305 92.907 1.15494 92.3247 0.411777C92.2403 0.304236 92.1658 0.188994 92.0381 0.00856767H92.5313C94.6674 0.00856767 96.8036 0.0165438 98.9394 4.14108e-05C99.2666 -0.00243395 99.4583 0.105932 99.6461 0.36117C102.989 4.89934 106.34 9.43118 109.69 13.9641C109.749 14.0442 109.813 14.1212 109.884 14.2119C110.041 14.1039 109.976 13.949 109.977 13.823C109.982 12.5793 109.98 11.3356 109.98 10.0918C109.98 6.91814 109.98 3.74444 109.98 0.570751V0.037997H114.864C114.949 0.352919 114.984 22.0921 114.899 22.8609C114.812 22.8732 114.717 22.898 114.623 22.8983C113.247 22.9008 111.87 22.8906 110.494 22.9079C110.213 22.9115 110.088 22.7652 109.95 22.5768C107.818 19.6698 105.683 16.7649 103.549 13.8593C102.203 12.0262 100.857 10.193 99.509 8.36045C99.4605 8.29444 99.4028 8.23558 99.3493 8.17315L99.2558 8.2023H99.2555Z" fill="#F1275B"/>
<path d="M48.3461 8.15281V22.9574H43.454C43.4493 22.8031 43.4402 22.6386 43.4399 22.4744C43.4391 18.7862 43.4394 15.0981 43.4394 11.4098C43.4394 8.72242 43.4369 6.03472 43.4432 3.3473C43.4438 3.07776 43.3831 2.86213 43.2071 2.64594C42.584 1.88051 41.9827 1.09747 41.3747 0.319925C41.3165 0.245389 41.2704 0.161777 41.1904 0.0388336C41.3449 0.0261817 41.4528 0.00940423 41.5603 0.00940423C43.7536 0.00775398 45.9471 0.0118796 48.1403 0.00335333C48.3957 0.00225317 48.5538 0.0833901 48.7066 0.291321C50.9867 3.39103 53.2757 6.48414 55.5636 9.57807C56.6777 11.0847 57.7937 12.5903 58.909 14.0962C58.9424 14.1413 58.9777 14.1844 59.0075 14.2227C59.0359 14.2186 59.0502 14.2191 59.0621 14.2139C59.0734 14.2089 59.0905 14.1979 59.0905 14.1897C59.0916 9.48813 59.0916 4.78659 59.0916 0.0982424C59.424 -0.00929854 63.4885 -0.0346023 64.0297 0.0600117V22.8741C63.8943 22.8832 63.7702 22.8988 63.6458 22.8988C62.327 22.9005 61.0079 22.8928 59.6893 22.906C59.4176 22.9087 59.2488 22.829 59.0852 22.6054C56.6782 19.3153 54.2607 16.0327 51.8466 12.7479C50.7879 11.3072 49.7314 9.86466 48.673 8.42372C48.5979 8.32168 48.5138 8.22624 48.4338 8.12778L48.3458 8.15253L48.3461 8.15281Z" fill="#F1275B"/>
<path d="M144.62 0.00867573H145.103C147.955 0.00867573 150.807 0.00757557 153.659 0.0097759C154.111 0.0100509 154.076 -0.0609096 154.266 0.429488C157.098 7.72577 159.933 15.0209 162.767 22.3161C162.844 22.5142 162.922 22.7119 163 22.9116C162.68 23.001 158.023 23.0271 157.455 22.9438C157.218 22.3139 156.978 21.6731 156.736 21.0328C156.499 20.406 156.261 19.78 156.018 19.1411H146.16C145.683 20.4038 145.199 21.6819 144.713 22.9674H139.178C139.234 22.8021 139.276 22.6594 139.33 22.5205C140.566 19.3231 141.803 16.1269 143.038 12.9295C144.262 9.75859 145.477 6.5838 146.717 3.4189C146.863 3.04567 146.813 2.80199 146.564 2.50522C145.985 1.81542 145.442 1.09509 144.887 0.385756C144.811 0.288667 144.744 0.184427 144.62 0.00895077L144.62 0.00867573ZM151.035 5.10765L150.939 5.10298C149.773 8.30445 148.597 11.5021 147.432 14.7338H154.545C153.365 11.4971 152.2 8.30253 151.035 5.10765Z" fill="#F1275B"/>
<path d="M133.612 14.4965C132.821 14.4965 132.105 14.4888 131.39 14.5009C131.155 14.5048 130.992 14.4393 130.842 14.2506C129.909 13.0732 128.965 11.9045 128.027 10.7318C127.949 10.6352 127.883 10.5301 127.781 10.3852H138.242C138.252 10.5139 138.27 10.6369 138.27 10.7601C138.272 13.3474 138.268 15.9344 138.277 18.5217C138.277 18.772 138.197 18.9538 138.029 19.1279C135.931 21.3016 133.388 22.5734 130.375 22.9018C128.124 23.1471 125.933 22.899 123.845 22.0211C120.262 20.5147 118.013 17.8545 117.222 14.0526C116.707 11.5772 116.906 9.13239 117.924 6.78822C118.918 4.50043 120.533 2.75888 122.731 1.59848C125.79 -0.0171087 129.022 -0.366135 132.35 0.598707C134.792 1.30639 136.632 2.84579 138.006 4.9592C138.02 4.98066 138.02 5.01173 138.037 5.08682C136.777 5.7835 135.504 6.48678 134.192 7.21206C134.077 7.06189 133.969 6.91667 133.857 6.7753C132.723 5.35031 131.266 4.48668 129.436 4.34751C127.441 4.19569 125.661 4.76172 124.186 6.13528C123.175 7.07564 122.53 8.24511 122.216 9.58676C121.773 11.4829 121.878 13.3427 122.755 15.1022C123.935 17.4703 125.894 18.7126 128.528 18.8735C130.249 18.9788 131.803 18.4631 133.224 17.5019C133.518 17.303 133.637 17.0808 133.62 16.726C133.591 16.1413 133.612 15.5543 133.612 14.9682C133.612 14.8288 133.612 14.6893 133.612 14.4965Z" fill="#F1275B"/>
<path d="M39.7001 18.6852V22.9591H23.457V0.162868C23.7787 0.0789805 39.1112 0.0531266 39.7302 0.136464V4.37099H28.417V9.16165C28.9143 9.18888 29.4246 9.17045 29.9338 9.17375C30.4499 9.17705 30.9661 9.17457 31.4822 9.17457H37.7438V13.4768H28.4082V18.6792C32.1627 18.6888 35.9108 18.6781 39.6998 18.6852H39.7001Z" fill="#F1275B"/>
<path d="M72.5334 18.6885H83.5398C83.6297 19.0188 83.6496 22.4142 83.5668 22.9574H66.112C66.1045 22.8004 66.0924 22.6612 66.0924 22.522C66.0907 21.4928 66.0998 20.4636 66.0861 19.4347C66.0825 19.1608 66.1608 18.9446 66.3214 18.7278C68.8588 15.303 71.3905 11.8738 73.9244 8.44628C74.8427 7.20419 75.7632 5.96376 76.6809 4.72113C76.746 4.63311 76.7957 4.53382 76.8873 4.38283H66.1225V0.162051C66.4276 0.0798139 82.9089 0.0498345 83.5583 0.135097C83.5657 0.265191 83.5798 0.403262 83.5801 0.541607C83.582 1.57081 83.5724 2.60001 83.5867 3.62894C83.5908 3.91938 83.5012 4.14519 83.3291 4.3721C80.7107 7.82606 78.0985 11.2844 75.4849 14.7417C74.5964 15.9169 73.7071 17.0919 72.8197 18.268C72.7366 18.3783 72.6638 18.4963 72.5336 18.6882L72.5334 18.6885Z" fill="#F1275B"/>
<path d="M85.7181 0.0320133H90.5418V22.9135C90.2475 23.0034 86.4102 23.035 85.7203 22.952C85.6288 22.612 85.621 0.437423 85.7181 0.0320133Z" fill="#F1275B"/>
</g>
<defs>
<clipPath id="clip0_1002_167114">
<rect width="163" height="23" fill="white"/>
</clipPath>
</defs>
</svg>
