<svg width="12" height="12" viewBox="0 0 12 12" fill="none" xmlns="http://www.w3.org/2000/svg">
<g clip-path="url(#clip0_480_5771)">
<path d="M11.5328 8.30664C11.3997 8.62811 11.2377 8.93688 11.0489 9.2292H0.946059C0.755924 8.93619 0.59102 8.62756 0.453125 8.30664H11.5328Z" fill="white"/>
<path d="M11.838 7.38477C11.7634 7.70006 11.6629 8.00864 11.5373 8.30732H0.453079C0.328516 8.00827 0.227953 7.69978 0.152344 7.38477H11.838Z" fill="#B12233"/>
<path d="M11.9837 6.46094C11.9599 6.77254 11.9115 7.08178 11.8389 7.38575H0.160031C0.0882378 7.08172 0.0406048 6.77248 0.0175781 6.46094H11.9837Z" fill="white"/>
<path d="M11.0527 9.23047C10.8408 9.56109 10.5969 9.87009 10.3246 10.153H1.67341C1.40109 9.87009 1.15722 9.56109 0.945312 9.23047H11.0527Z" fill="#B12233"/>
<path d="M9.19443 11.0801C8.23865 11.6841 7.13118 12.0047 6.00054 12.0047C4.86989 12.0047 3.76242 11.6841 2.80664 11.0801H9.19443Z" fill="#B12233"/>
<path d="M10.3247 10.1523C9.9874 10.5053 9.60765 10.8152 9.19415 11.0749H2.80636C2.39338 10.8145 2.01371 10.5047 1.67578 10.1523H10.3247Z" fill="white"/>
<path d="M10.325 1.84443H1.67383C2.01295 1.49336 2.39245 1.18368 2.80441 0.921875H9.19446C9.60743 1.18228 9.9871 1.49208 10.325 1.84443Z" fill="white"/>
<path d="M9.19443 0.922564H2.80664C2.99583 0.802164 3.19133 0.691963 3.39228 0.592434L3.45786 0.567561C3.52569 0.53289 3.59579 0.501234 3.66814 0.472592L3.76085 0.434152C4.47203 0.14634 5.2322 -0.00108603 5.9994 8.91091e-06C7.13039 -0.00194674 8.23857 0.318037 9.19443 0.922564Z" fill="#B12233"/>
<path d="M11.0527 2.76826H0.945312C0.99958 2.68686 1.05385 2.60545 1.11264 2.52405L1.13073 2.50596C1.29607 2.27355 1.47741 2.05293 1.67341 1.8457H10.3246C10.5964 2.12909 10.8403 2.43804 11.0527 2.76826Z" fill="#B12233"/>
<path d="M11.8368 4.61591H0.160156C0.23251 4.30108 0.330054 3.99257 0.451846 3.69336H11.5316C11.658 3.99215 11.7601 4.30067 11.8368 4.61591Z" fill="#B12233"/>
<path d="M11.5328 3.69239H0.453125C0.477998 3.63134 0.502871 3.57255 0.530005 3.51376C0.604623 3.37131 0.679241 3.23338 0.751599 3.09771C0.823956 2.96204 0.878224 2.87159 0.946059 2.76758H11.0535C11.2393 3.06163 11.3997 3.37103 11.5328 3.69239Z" fill="white"/>
<path d="M11.9837 5.53779H0.0175781V5.42247C0.0288839 5.31167 0.0424509 5.19635 0.0605403 5.08782C0.0831519 4.92954 0.114808 4.77125 0.150987 4.61523H11.8367C11.91 4.91838 11.9591 5.22687 11.9837 5.53779Z" fill="white"/>
<path d="M12 5.99911C12 6.15513 12 6.30889 11.9819 6.45134H0.0180893C0 6.30889 0 6.15513 0 5.99911C0 5.84309 0 5.69159 0.0180893 5.54688H11.9842C11.9842 5.69159 12 5.84309 12 5.99911Z" fill="#B12233"/>
<path d="M5.99887 6.05455e-06V6.46015H0.0180893C0 6.30866 0 6.1549 0 5.99888C0 5.84286 0 5.69136 0.0180893 5.54664V5.43132C0.0293951 5.32053 0.0429621 5.20521 0.0610514 5.09667C0.0836631 4.93839 0.115319 4.78011 0.151498 4.62409C0.226322 4.30592 0.326898 3.99435 0.452233 3.69249C0.477106 3.63144 0.501979 3.57265 0.529112 3.51386C0.603731 3.3714 0.678349 3.23347 0.750707 3.0978C0.823064 2.96213 0.877332 2.87169 0.945167 2.76767C1.013 2.66366 1.0537 2.60487 1.11249 2.52347L1.13058 2.50538C1.58185 1.87311 2.15261 1.33538 2.81063 0.922561C2.99835 0.802302 3.19233 0.692103 3.39175 0.592431L3.45732 0.567558C3.52516 0.532887 3.59525 0.501231 3.66761 0.472589L3.76032 0.43415C4.47149 0.146337 5.23166 -0.00108888 5.99887 6.05455e-06Z" fill="#3C3B6D"/>
<path d="M5.24008 0.306641L5.326 0.566675H5.59734L5.37801 0.727217L5.46167 0.98499L5.24008 0.824447L5.02074 0.98499L5.10441 0.727217L4.88281 0.566675H5.15641L5.24008 0.306641Z" fill="white"/>
<path d="M3.92169 0.922005L3.94204 0.985318L3.84481 0.922005L3.72045 0.824775L3.5893 0.922005L3.50111 0.985318L3.52146 0.922005L3.58478 0.727545L3.39258 0.591875L3.45815 0.567002H3.63678L3.66844 0.472034L3.76115 0.433594L3.80637 0.567002H4.07093L3.84481 0.727545L3.92169 0.922005Z" fill="white"/>
<path d="M5.24008 1.59961L5.326 1.85964H5.59734L5.37801 2.02019L5.46167 2.28022L5.24008 2.11968L5.02074 2.28022L5.10441 2.02019L4.88281 1.85964H5.15641L5.24008 1.59961Z" fill="white"/>
<path d="M3.72055 1.59961L3.80647 1.85964H4.07781L3.85848 2.02019L3.94214 2.28022L3.72055 2.11968L3.50121 2.28022L3.58488 2.02019L3.36328 1.85964H3.63688L3.72055 1.59961Z" fill="white"/>
<path d="M2.20297 1.59961L2.28663 1.85964H2.56023L2.33864 2.02019L2.4223 2.28022L2.20297 2.11968L1.98137 2.28022L2.06504 2.02019L1.8457 1.85964H2.11704L2.20297 1.59961Z" fill="white"/>
<path d="M5.24008 2.89062L5.326 3.15066H5.59734L5.37801 3.3112L5.46167 3.57124L5.24008 3.41069L5.02074 3.57124L5.10441 3.3112L4.88281 3.15066H5.15641L5.24008 2.89062Z" fill="white"/>
<path d="M3.72055 2.89062L3.80647 3.15066H4.07781L3.85848 3.3112L3.94214 3.57124L3.72055 3.41069L3.50121 3.57124L3.58488 3.3112L3.36328 3.15066H3.63688L3.72055 2.89062Z" fill="white"/>
<path d="M2.20297 2.89062L2.28663 3.15066H2.56023L2.33864 3.3112L2.4223 3.57124L2.20297 3.41069L1.98137 3.57124L2.06504 3.3112L1.8457 3.15066H2.11704L2.20297 2.89062Z" fill="white"/>
<path d="M0.81811 3.31021L0.904034 3.57024L0.677918 3.4097L0.533203 3.51371C0.603299 3.37126 0.677918 3.23333 0.750275 3.09766L0.766103 3.14966H1.0397L0.81811 3.31021Z" fill="white"/>
<path d="M5.24008 4.18359L5.326 4.44137H5.59734L5.37801 4.60191L5.46167 4.86194L5.24008 4.7014L5.02074 4.86194L5.10441 4.60191L4.88281 4.44137H5.15641L5.24008 4.18359Z" fill="white"/>
<path d="M3.72055 4.18359L3.80647 4.44137H4.07781L3.85848 4.60191L3.94214 4.86194L3.72055 4.7014L3.50121 4.86194L3.58488 4.60191L3.36328 4.44137H3.63688L3.72055 4.18359Z" fill="white"/>
<path d="M2.20297 4.18359L2.28663 4.44137H2.56023L2.33864 4.60191L2.4223 4.86194L2.20297 4.7014L1.98137 4.86194L2.06504 4.60191L1.8457 4.44137H2.11704L2.20297 4.18359Z" fill="white"/>
<path d="M0.683436 4.18359L0.767099 4.44137H1.0407L0.819106 4.60191L0.90503 4.86194L0.683436 4.7014L0.461842 4.86194L0.545505 4.60191L0.326172 4.44137H0.599773L0.683436 4.18359Z" fill="white"/>
<path d="M5.24008 5.47461L5.326 5.73464H5.59734L5.37801 5.89519L5.46167 6.15296L5.24008 5.99468L5.02074 6.15296L5.10441 5.89519L4.88281 5.73464H5.15641L5.24008 5.47461Z" fill="white"/>
<path d="M3.72055 5.47461L3.80647 5.73464H4.07781L3.85848 5.89519L3.94214 6.15296L3.72055 5.99468L3.50121 6.15296L3.58488 5.89519L3.36328 5.73464H3.63688L3.72055 5.47461Z" fill="white"/>
<path d="M2.20297 5.47461L2.28663 5.73464H2.56023L2.33864 5.89519L2.4223 6.15296L2.20297 5.99468L1.98137 6.15296L2.06504 5.89519L1.8457 5.73464H2.11704L2.20297 5.47461Z" fill="white"/>
<path d="M0.683436 5.47461L0.767099 5.73464H1.0407L0.819106 5.89519L0.90503 6.15296L0.683436 5.99468L0.461842 6.15296L0.545505 5.89519L0.326172 5.73464H0.599773L0.683436 5.47461Z" fill="white"/>
<path d="M4.48031 4.82812L4.56624 5.08816H4.83757L4.61824 5.2487L4.70191 5.50874L4.48031 5.34819L4.26098 5.50874L4.34464 5.2487L4.12305 5.08816H4.39665L4.48031 4.82812Z" fill="white"/>
<path d="M2.96304 4.82812L3.0467 5.08816H3.3203L3.09871 5.2487L3.18237 5.50874L2.96304 5.34819L2.74145 5.50874L2.82511 5.2487L2.60352 5.08816H2.87712L2.96304 4.82812Z" fill="white"/>
<path d="M1.4432 4.82812L1.52686 5.08816H1.80047L1.57887 5.2487L1.66253 5.50874L1.4432 5.34819L1.22161 5.50874L1.30527 5.2487L1.08594 5.08816H1.35728L1.4432 4.82812Z" fill="white"/>
<path d="M0.059 5.24782L0.144924 5.50785L0.0273438 5.42645C0.0386496 5.31565 0.0522166 5.20033 0.0703059 5.0918H0.280594L0.059 5.24782Z" fill="white"/>
<path d="M4.48031 3.53711L4.56624 3.79714H4.83757L4.61824 3.95769L4.70191 4.21772L4.48031 4.05718L4.26098 4.21772L4.34464 3.95769L4.12305 3.79714H4.39665L4.48031 3.53711Z" fill="white"/>
<path d="M2.96304 3.53711L3.0467 3.79714H3.3203L3.09871 3.95769L3.18237 4.21772L2.96304 4.05718L2.74145 4.21772L2.82511 3.95769L2.60352 3.79714H2.87712L2.96304 3.53711Z" fill="white"/>
<path d="M1.4432 3.53711L1.52686 3.79714H1.80047L1.57887 3.95769L1.66253 4.21772L1.4432 4.05718L1.22161 4.21772L1.30527 3.95769L1.08594 3.79714H1.35728L1.4432 3.53711Z" fill="white"/>
<path d="M4.48031 2.24609L4.56624 2.50613H4.83757L4.61824 2.66441L4.70191 2.92444L4.48031 2.7639L4.26098 2.92444L4.34464 2.66441L4.12305 2.50613H4.39665L4.48031 2.24609Z" fill="white"/>
<path d="M2.96304 2.24609L3.0467 2.50613H3.3203L3.09871 2.66441L3.18237 2.92444L2.96304 2.7639L2.74145 2.92444L2.82511 2.66441L2.60352 2.50613H2.87712L2.96304 2.24609Z" fill="white"/>
<path d="M1.613 2.76842L1.66501 2.92444L1.45019 2.76842L1.44341 2.7639L1.43663 2.76842L1.22182 2.92444L1.27382 2.76842L1.30548 2.66441L1.11328 2.52422L1.12685 2.50613H1.35749L1.44341 2.24609L1.52707 2.50613H1.80068L1.57908 2.66441L1.613 2.76842Z" fill="white"/>
<path d="M4.48031 0.951172L4.56624 1.21121H4.83757L4.61824 1.37175L4.70191 1.63178L4.48031 1.47124L4.26098 1.63178L4.34464 1.37175L4.12305 1.21121H4.39665L4.48031 0.951172Z" fill="white"/>
<path d="M2.96304 0.951172L3.0467 1.21121H3.3203L3.09871 1.37175L3.18237 1.63178L2.96304 1.47124L2.74145 1.63178L2.82511 1.37175L2.60352 1.21121H2.87712L2.96304 0.951172Z" fill="white"/>
</g>
<defs>
<clipPath id="clip0_480_5771">
<rect width="12" height="12" fill="white"/>
</clipPath>
</defs>
</svg>
