<svg width="13" height="9" viewBox="0 0 13 9" fill="none" xmlns="http://www.w3.org/2000/svg">
<path d="M8.06641 0.921875L7.51953 1.46875C7.41016 1.60547 7.41016 1.79688 7.54688 1.93359L9.73438 4.03906H0.328125C0.136719 4.03906 0 4.20312 0 4.36719V5.13281C0 5.32422 0.136719 5.46094 0.328125 5.46094H9.73438L7.54688 7.59375C7.41016 7.73047 7.41016 7.92188 7.51953 8.05859L8.06641 8.60547C8.20312 8.71484 8.39453 8.71484 8.53125 8.60547L12.1406 4.99609C12.25 4.85938 12.25 4.66797 12.1406 4.53125L8.53125 0.921875C8.39453 0.8125 8.20312 0.8125 8.06641 0.921875Z" fill="#7A8085"/>
</svg>
