<svg width="14" height="9" viewBox="0 0 14 9" fill="none" xmlns="http://www.w3.org/2000/svg">
<path d="M5.15625 8.60547L5.70312 8.05859C5.8125 7.92188 5.8125 7.73047 5.67578 7.59375L3.48828 5.46094H12.9219C13.0859 5.46094 13.25 5.32422 13.25 5.13281V4.36719C13.25 4.20312 13.0859 4.03906 12.9219 4.03906H3.48828L5.67578 1.93359C5.8125 1.79688 5.8125 1.60547 5.70312 1.46875L5.15625 0.921875C5.01953 0.8125 4.82812 0.8125 4.69141 0.921875L1.08203 4.53125C0.972656 4.66797 0.972656 4.85938 1.08203 4.99609L4.69141 8.60547C4.82812 8.71484 5.01953 8.71484 5.15625 8.60547Z" fill="#7A8085"/>
</svg>
