<svg width="12" height="12" viewBox="0 0 12 12" fill="none" xmlns="http://www.w3.org/2000/svg">
<g clip-path="url(#clip0_480_5815)">
<path d="M4.17243 0.285156V11.7153C2.96146 11.3274 1.90499 10.5649 1.15543 9.53773C0.405865 8.51056 0.00195312 7.27184 0.00195312 6.00025C0.00195312 4.72866 0.405865 3.48994 1.15543 2.46276C1.90499 1.43559 2.96146 0.673055 4.17243 0.285156Z" fill="#FF0000"/>
<path d="M11.6563 8C11.1362 9.47046 10.064 10.6806 8.66689 11.3741C7.2698 12.0676 5.65759 12.1899 4.17188 11.7151V8H11.6563Z" fill="black"/>
<path d="M11.6563 3.99992H4.17188V0.284822C5.65759 -0.189987 7.2698 -0.0676934 8.66689 0.625789C10.064 1.31927 11.1362 2.52945 11.6563 3.99992Z" fill="#00732F"/>
<path d="M12 5.99887C12.0002 6.68061 11.8839 7.35738 11.6563 8H4.17188V4H11.6563C11.8839 4.64184 12.0002 5.31786 12 5.99887Z" fill="white"/>
</g>
<defs>
<clipPath id="clip0_480_5815">
<rect width="12" height="12" fill="white"/>
</clipPath>
</defs>
</svg>
